<svg xmlns="http://www.w3.org/2000/svg" viewBox="0 0 300 340" fill="none"><title>CARTIER temporary split-ring emblem</title><defs><linearGradient id="metal" x1="40" y1="20" x2="260" y2="320" gradientUnits="userSpaceOnUse"><stop stop-color="#777b81"/><stop offset=".19" stop-color="#f1f1ec"/><stop offset=".32" stop-color="#53565b"/><stop offset=".48" stop-color="#131416"/><stop offset=".57" stop-color="#969b9d"/><stop offset=".65" stop-color="#e7e8e4"/><stop offset=".84" stop-color="#303338"/><stop offset="1" stop-color="#a4a6a5"/></linearGradient></defs><path fill="url(#metal)" stroke="#b9bdbb" stroke-width="1" d="M258 58 222 119 192 98 131 90 90 127 82 195 111 240 177 248 216 219 256 240 220 289 180 307 97 290 44 237 29 170 47 98 101 42 180 26Z"/><path fill="url(#metal)" d="m203 159 56-15-16 50-48-2 17-16Z"/><path stroke="#edece5" stroke-opacity=".65" d="m101 42 6 13-49 51-13 63 13 62 44 46 77 17 38-17M90 127l-8 68 29 45 66 8"/></svg>